<?xml version="1.0" encoding="utf-8"?>
<!-- Generator: Adobe Illustrator 22.0.1, SVG Export Plug-In . SVG Version: 6.00 Build 0)  -->
<!DOCTYPE svg PUBLIC "-//W3C//DTD SVG 1.1//EN" "http://www.w3.org/Graphics/SVG/1.1/DTD/svg11.dtd">
<svg version="1.1" xmlns="http://www.w3.org/2000/svg" xmlns:xlink="http://www.w3.org/1999/xlink" x="0px" y="0px"
	 viewBox="0 0 638 953" style="enable-background:new 0 0 638 953;" xml:space="preserve" preserveAspectRatio="xMinYMin meet">
<!--
<g id="Layer_1">
	<image style="overflow:visible;" width="636" height="954" xlink:href="../In_the_Dark_Lines/UWbackground.jpg" >
	</image>
</g>
-->
<g id="Background">
	<g>
	<path class="st-plus" d="M429.4,219.4v6.3h6.1v3.2h-6.1v6.4H426v-6.4h-6.1v-3.2h6.1v-6.3H429.4z"/>
	</g>
<g>
	<path class="st-plus" d="M378.8,177.3v6.3h6.1v3.2h-6.1v6.4h-3.4v-6.4h-6.1v-3.2h6.1v-6.3H378.8z"/>
</g>
<g>
	<path class="st-plus" d="M393.8,283.4v6.3h6.1v3.2h-6.1v6.4h-3.4v-6.4h-6.1v-3.2h6.1v-6.3H393.8z"/>
</g>
<g>
	<path class="st-plus" d="M289.8,275.4v6.3h6.1v3.2h-6.1v6.4h-3.4V285h-6.1v-3.2h6.1v-6.3H289.8z"/>
</g>
<g>
	<path class="st-plus" d="M325.2,215.1v6.3h6.1v3.2h-6.1v6.4h-3.4v-6.4h-6.1v-3.2h6.1v-6.3H325.2z"/>
</g>
<g>
	<path class="st-plus" d="M214.8,207v6.3h6.1v3.2h-6.1v6.4h-3.4v-6.4h-6.1v-3.2h6.1V207H214.8z"/>
</g>
<g>
	<path class="st-plus" d="M325,342.4v6.3h6.1v3.2H325v6.4h-3.4v-6.4h-6.1v-3.2h6.1v-6.3H325z"/>
</g>
<g>
	<path class="st-plus" d="M373,455.7v6.3h6.1v3.2H373v6.4h-3.4v-6.4h-6.1V462h6.1v-6.3H373z"/>
</g>

<g id="One" class="st-group">
	<polygon id="twoCircle" class="st-overlay" points="446.4,196 410.2,196 392.1,227.3 410.2,258.7 446.4,258.7 464.6,227.3 	"/>
	
</g>

<g id="Two" class="st-group">
	
<polygon id="oneCircle" class="st-overlay" points="389.4,432.3 353.2,432.3 335.1,463.7 353.2,495 389.4,495 407.6,463.7 	"/>
</g>


<g id="Three" class="st-group">
	<polygon id="threeCircle" class="st-overlay" points="341.4,319 305.2,319 287.1,350.3 305.2,381.7 341.4,381.7 359.6,350.3 	"/>
</g>
<g id="Four" class="st-group">
	<polygon id="fourCircle" class="st-overlay" points="410.2,260 374,260 355.9,291.3 374,322.7 410.2,322.7 428.3,291.3 	"/>
</g>
<g id="Five" class="st-group">
	<polygon id="fiveCircle" class="st-overlay" points="231.2,183.6 195,183.6 176.9,215 195,246.4 231.2,246.4 249.3,215 	"/>
</g>
<g id="Six" class="st-group">
	<polygon id="sixCircle" class="st-overlay" points="306.2,253.2 270,253.2 251.9,284.6 270,316 306.2,316 324.3,284.6 	"/>
</g>
<g id="Seven" class="st-group">
	<polygon id="sevenCircle" class="st-overlay" points="395.2,153.9 359,153.9 340.9,185.3 359,216.6 395.2,216.6 413.3,185.3 	"/>
</g>
<g id="Eight" class="st-group">
	<polygon id="eightCircle" class="st-overlay" points="343.5,207 315.5,207 301.5,231.3 315.5,255.5 343.5,255.5 357.6,231.3 	"/>
</g>

</g>
</svg>
